# xmcd
#
# Track frame offsets:
#	150
#	15525
#	34115
#	50596
#	68709
#	83184
#	105835
#	127586
#	143486
#	158861
#	177451
#	193932
#	212045
#	226520
#	249171
#	270922
#
# Disc length: 3824 seconds
#
# Revision: 1
# Processed by: cddbd v1.5.2PL0 Copyright (c) Steve Scherf et al.
# Submitted via: audiograbber 1.83.01
#
DISCID=c10eee10
DTITLE=Various Artist - Karaoke Party - Best of Country Disc 2
DYEAR=2006
DGENRE=Karaoke
TTITLE0=George Strait - She Let Herself Go
TTITLE1=Kenny Chesney - Who You'd Be Today
TTITLE2=Toby Keith - Honky Tonk U
TTITLE3=Tim McGraw - Do You Want Fries With That
TTITLE4=Alan Jackson - Too Much of a Good Thing
TTITLE5=Kenny Chesney and Uncle Kracker - When the Sun Goes Down
TTITLE6=Keith Urban - Better Life
TTITLE7=Blake Shelton - Goodbye Time
TTITLE8=George Strait - She Let Herself Go w/ Vocals
TTITLE9=Kenny Chesney - Who You'd Be Today w/ Vocals
TTITLE10=Toby Keith - Honky Tonk U w/ Vocals
TTITLE11=Tim McGraw - Do You Want Fries With That w/ Vocals
TTITLE12=Alan Jackson - Too Much of a Good Thing w/ Vocals
TTITLE13=Kenny Chesney and Uncle Kracker - When the Sun Goes Down w/ Vocals
TTITLE14=Keith Urban - Better Life w/ Vocals
TTITLE15=Blake Shelton - Goodbye Time w/ Vocals
EXTD=
EXTT0=
EXTT1=
EXTT2=
EXTT3=
EXTT4=
EXTT5=
EXTT6=
EXTT7=
EXTT8=
EXTT9=
EXTT10=
EXTT11=
EXTT12=
EXTT13=
EXTT14=
EXTT15=
PLAYORDER=
